<?xml version="1.0" encoding="UTF-8"?>
<svg width="26px" height="51px" viewBox="0 0 26 51" version="1.1" xmlns="http://www.w3.org/2000/svg" xmlns:xlink="http://www.w3.org/1999/xlink">
    <!-- Generator: Sketch 61.2 (89653) - https://sketch.com -->
    <title>Artboard</title>
    <desc>Created with Sketch.</desc>
    <g id="Artboard" stroke="none" stroke-width="1" fill="none" fill-rule="evenodd">
        <g id="Group" fill="#F6516B" fill-rule="nonzero">
            <g id="uZWGxB.tif_12_" transform="translate(0.000000, 31.000000)">
                <path d="M25.9,0.9 L13,8.5 L0.1,0.9 C0.1,1 0.1,1 0.1,1 L12.9,19.1 L25.9,0.9 C25.9,1 25.9,1 25.9,0.9 Z" id="Path"></path>
            </g>
            <g id="Path">
                <path d="M15.7,5.9 C15.7,6.2 15.6,6.5 15.6,6.7 C15.7,6.5 15.7,6.2 15.7,5.9 Z"></path>
                <path d="M4,18 C3.5,19.5 3.1,20.9 2.5,22.1 C1.8,23.8 1.3,25.5 1.6,27.4 C1.2,26.7 0.8,26.1 0.4,25.4 C0.4,25.4 0.3,28.7 1.4,30.3 L4.5,32.2 C4,30.6 3.4,28 3.4,26.1 C3.5,23.1 5.2,22 4,18 Z"></path>
                <path d="M17.6,18.9 C20.3,22.9 25.6,25.1 25.7,29.4 C25.8,28.5 25.9,27.5 25.5,26.4 L21.2,20 C20.5,18.9 19.8,17.7 19.2,16.6 C18.3,14.8 18.4,13 19.5,11.3 C19.7,11 19.9,10.7 20,10.4 C20.2,10.5 14.9,14.8 17.6,18.9 Z"></path>
                <path d="M9.3,20.1 C9.4,12.9 14.9,10.8 15.6,6.8 C15.6,6.5 15.6,6.3 15.7,6 C14.6,7.6 13.8,8.9 12.8,10 C11.3,11.7 9.3,13.1 9,15.7 C8.9,15.7 8.7,15.7 8.6,15.7 C8.2,14.7 7.8,13.8 7.2,12.5 C7.2,12.5 6.4,14.8 6.5,16.3 C6.6,17.8 6.8,31.9 12.1,36.7 L12.1,36.7 L13,37.2 C13,37.1 9.2,27.7 9.3,20.1 Z"></path>
                <path d="M12.1,9.4 C14.6,7.5 15,5.8 13.8,3.4 C13.3,2.4 13,1.4 12.5,0.4 C11.3,1.4 11.7,2.7 12.1,4 C12.7,5.8 13.2,7.4 12.1,9.4 Z"></path>
                <path d="M25.7,29.7 L25.7,29.7 C25.7,29.6 25.7,29.5 25.7,29.5 C25.7,29.5 25.7,29.6 25.7,29.7 Z"></path>
                <path d="M6.5,16.2 C6.4,14.7 7.2,12.4 7.2,12.4 C6.6,13.6 6,14.5 5.7,15.4 C5.4,16.6 5.5,17.8 5.5,19 C5.5,20.1 5.6,21.1 4.9,22.3 C4.9,20.7 4.8,19.3 3.9,18 C5.2,22 3.4,23.1 3.4,26.1 C3.4,28 4,30.5 4.5,32.2 L12,36.6 L12,36.6 C6.8,31.8 6.6,17.7 6.5,16.2 Z"></path>
                <path d="M0.5,25.4 C6.9388939e-18,26.7 -0.1,28.1 0.2,29.4 L0.1,29.5 L0.3,29.6 L1.5,30.3 C0.4,28.7 0.5,25.4 0.5,25.4 Z"></path>
            </g>
            <polygon id="Path" points="13 39.5 13 50.1 0.2 32.1"></polygon>
            <g transform="translate(9.000000, 6.000000)" id="Path">
                <path d="M6.3,12.5 C4.7,10.5 4.4,8.5 5.2,6.4 C5.6,5.3 6.1,4.1 6.4,3 C6.6,2.3 6.6,1.7 6.7,0.8 C6,4.8 0.5,6.9 0.4,14.1 C0.3,21.8 4.1,31.2 4.1,31.2 L11.1,27.1 C13.8,23.1 7.7,17.6 6.3,12.5 Z"></path>
                <path d="M16.8,23.7 L16.8,23.7 C16.8,23.6 16.8,23.5 16.8,23.4 C16.6,19.1 11.4,16.8 8.7,12.9 C5.9,8.8 11.2,4.5 11.2,4.5 C7.5,5.8 6.1,8.6 6.4,12.5 C7.7,17.6 13.9,23.1 11.1,27.1 L16.8,23.7 L16.8,23.7 Z"></path>
            </g>
        </g>
    </g>
</svg>