<?xml version="1.0" encoding="UTF-8"?>
<svg width="27px" height="51px" viewBox="0 0 27 51" version="1.1" xmlns="http://www.w3.org/2000/svg" xmlns:xlink="http://www.w3.org/1999/xlink">
    <!-- Generator: Sketch 61.2 (89653) - https://sketch.com -->
    <title>Artboard</title>
    <desc>Created with Sketch.</desc>
    <g id="Artboard" stroke="none" stroke-width="1" fill="none" fill-rule="evenodd">
        <g id="Group" fill="#2DC6EA" fill-rule="nonzero">
            <g id="uZWGxB.tif_10_" transform="translate(0.000000, 31.000000)">
                <path d="M26.5,0.9 L13.6,8.5 L0.7,0.9 C0.7,1 0.7,1 0.7,1 L13.5,19.1 L26.5,0.9 C26.5,1 26.5,1 26.5,0.9 Z" id="Path"></path>
            </g>
            <g id="Path">
                <path d="M16.3,5.9 C16.3,6.2 16.2,6.5 16.2,6.7 C16.3,6.5 16.3,6.2 16.3,5.9 Z"></path>
                <path d="M4.6,18 C4.1,19.5 3.7,20.9 3.1,22.1 C2.4,23.8 1.9,25.5 2.2,27.4 C1.8,26.7 1.4,26.1 1,25.4 C1,25.4 0.9,28.7 2,30.3 L5.1,32.2 C4.6,30.6 4,28 4,26.1 C4.1,23.1 5.8,22 4.6,18 Z"></path>
                <path d="M18.2,18.9 C20.9,22.9 26.2,25.1 26.3,29.4 C26.4,28.5 26.5,27.5 26.1,26.4 L21.8,20 C21.1,18.9 20.4,17.7 19.8,16.6 C18.9,14.8 19,13 20.1,11.3 C20.3,11 20.5,10.7 20.6,10.4 C20.8,10.5 15.5,14.8 18.2,18.9 Z"></path>
                <path d="M9.9,20.1 C10,12.9 15.5,10.8 16.2,6.8 C16.2,6.5 16.2,6.3 16.3,6 C15.2,7.6 14.4,8.9 13.4,10 C11.9,11.7 9.9,13.1 9.6,15.7 C9.5,15.7 9.3,15.7 9.2,15.7 C8.8,14.7 8.4,13.8 7.8,12.5 C7.8,12.5 7,14.8 7.1,16.3 C7.2,17.8 7.4,31.9 12.7,36.7 L12.7,36.7 L13.6,37.2 C13.6,37.1 9.8,27.7 9.9,20.1 Z"></path>
                <path d="M12.6,9.4 C15.1,7.5 15.5,5.8 14.3,3.4 C13.8,2.4 13.5,1.4 13,0.4 C11.8,1.4 12.2,2.7 12.6,4 C13.3,5.8 13.8,7.4 12.6,9.4 Z"></path>
                <path d="M26.3,29.7 L26.3,29.7 C26.3,29.6 26.3,29.5 26.3,29.5 C26.3,29.5 26.3,29.6 26.3,29.7 Z"></path>
                <path d="M7.1,16.2 C7,14.7 7.8,12.4 7.8,12.4 C7.2,13.6 6.6,14.5 6.3,15.4 C6,16.6 6.1,17.8 6.1,19 C6.1,20.1 6.2,21.1 5.5,22.3 C5.5,20.7 5.4,19.3 4.5,18 C5.8,22 4,23.1 4,26.1 C4,28 4.6,30.5 5.1,32.2 L12.6,36.6 L12.6,36.6 C7.4,31.8 7.2,17.7 7.1,16.2 Z"></path>
                <path d="M1.1,25.4 C0.6,26.7 0.5,28.1 0.8,29.4 L0.7,29.5 L0.9,29.6 L2.1,30.3 C1,28.7 1.1,25.4 1.1,25.4 Z"></path>
            </g>
            <polygon id="Path" points="13.6 39.5 13.6 50.1 0.8 32.1"></polygon>
            <g transform="translate(10.000000, 6.000000)" id="Path">
                <path d="M5.9,12.5 C4.3,10.5 4,8.5 4.8,6.4 C5.2,5.3 5.7,4.1 6,3 C6.2,2.3 6.2,1.7 6.3,0.8 C5.6,4.8 0.1,6.9 8.67361738e-19,14.1 C-0.1,21.8 3.7,31.2 3.7,31.2 L10.7,27.1 C13.4,23.1 7.2,17.6 5.9,12.5 Z"></path>
                <path d="M16.4,23.7 L16.4,23.7 C16.4,23.6 16.4,23.5 16.4,23.4 C16.2,19.1 11,16.8 8.3,12.9 C5.5,8.8 10.8,4.5 10.8,4.5 C7.1,5.8 5.7,8.6 6,12.5 C7.3,17.6 13.5,23.1 10.7,27.1 L16.4,23.7 L16.4,23.7 Z"></path>
            </g>
        </g>
    </g>
</svg>