<?xml version="1.0" encoding="UTF-8"?>
<svg width="280px" height="138px" viewBox="0 0 280 138" version="1.1" xmlns="http://www.w3.org/2000/svg" xmlns:xlink="http://www.w3.org/1999/xlink">
    <!-- Generator: Sketch 62 (91390) - https://sketch.com -->
    <title>XMLID_1_</title>
    <desc>Created with Sketch.</desc>
    <g id="Page-1" stroke="none" stroke-width="1" fill="none" fill-rule="evenodd">
        <g id="XMLID_1_" fill-rule="nonzero">
            <g id="XMLID_853_">
                <path d="M139.2,39.36 C140.24,39.2 141.28,38.96 142.32,38.8 C142.24,38.72 142.16,38.72 142.16,38.64 C140.88,38.64 139.52,38.72 138.24,38.8 C136.24,38.96 134.24,39.12 132.24,39.44 C133.36,39.6 134.48,39.84 135.52,40.08 C136.64,39.84 137.92,39.6 139.2,39.36 Z" id="XMLID_854_" fill="#E7EAF3"></path>
                <path d="M131.84,40.88 C132.8,40.64 133.76,40.4 134.72,40.24 C133.36,39.92 132.08,39.76 130.72,39.6 C130.24,39.68 129.76,39.76 129.28,39.84 C128.56,40 127.76,40.08 127.04,40.24 C128.08,40.56 129.04,40.88 130,41.36 C130.64,41.2 131.28,41.04 131.84,40.88 Z" id="XMLID_855_" fill="#E7EAF3"></path>
                <path d="M136.8,40.24 C137.84,40.64 138.88,41.44 139.68,42.08 C140.88,43.04 142,44.08 142.96,45.28 C143.92,46.48 144.8,47.76 145.52,49.12 C146.08,50.16 146.96,51.68 147.04,52.88 C147.28,52.8 147.6,52.72 147.84,52.64 C149.28,52.24 150.72,51.92 152.16,51.52 C152,51.12 151.84,50.64 151.68,50.16 C151.44,49.52 151.12,48.88 150.8,48.24 C150.16,46.88 149.36,45.68 148.48,44.48 C147.6,43.36 146.64,42.32 145.6,41.36 C144.72,40.56 143.84,39.92 142.96,39.2 C142.88,39.2 142.72,39.2 142.64,39.2 C141.44,39.36 140.24,39.52 139.04,39.76 C138.24,40 137.52,40.08 136.8,40.24 Z" id="XMLID_856_" fill="#E7EAF3"></path>
                <path d="M153.04,51.28 C153.44,51.2 153.84,51.04 154.16,50.96 C153.84,50.32 153.76,49.36 153.76,48.72 C153.6,47.12 153.28,45.76 152.56,44.4 C151.68,42.72 150.4,41.36 148.96,40.16 C150.32,41.76 151.28,43.52 152,45.52 C152.72,47.44 152.88,49.28 153.04,51.28 Z" id="XMLID_859_" fill="#F6516B"></path>
                <path d="M149.12,44.08 C150,45.28 150.8,46.56 151.52,47.92 C151.68,48.16 151.76,48.4 151.84,48.64 C151.6,47.28 151.2,46 150.64,44.8 C149.92,43.2 148.08,40.16 146.24,39.28 C146.16,39.2 146.08,39.12 146,39.04 C145.36,39.12 144.72,39.2 144.08,39.28 C146,40.4 147.76,42.32 149.12,44.08 Z" id="XMLID_860_" fill="#E7EAF3"></path>
                <path d="M118.4,45.52 C119.76,44.8 121.2,44.24 122.64,43.76 C122.08,43.28 121.44,42.96 120.64,42.72 C120.08,42.56 119.44,42.48 118.88,42.4 C117.6,42.8 116.24,43.28 114.96,43.76 C115.68,43.92 116.4,44.16 117.04,44.48 C117.68,44.72 118.08,45.04 118.4,45.52 Z" id="XMLID_861_" fill="#E7EAF3"></path>
                <path d="M64.08,99.6 C64.56,99.84 64.96,100.08 65.44,100.4 C65.52,100.4 65.52,100.48 65.6,100.48 C65.76,97.12 64.96,93.44 63.92,90.48 C63.2,88.4 62.08,86.4 60.64,84.56 C60.4,84.96 60.08,85.28 59.84,85.68 C59.52,86.08 59.28,86.48 58.96,86.88 C59.12,86.96 59.28,87.12 59.44,87.28 C61.36,89.04 62.96,91.52 63.36,94.16 C63.6,95.84 63.2,97.68 62.16,99.04 C62.8,99.04 63.52,99.36 64.08,99.6 Z" id="XMLID_862_" fill="#F6516B"></path>
                <path d="M71.28,84.48 C71.6,84.32 72,84.08 72.32,84 C72,83.28 71.68,82.56 71.36,81.84 C70.96,80.88 70.56,79.92 70.08,78.96 C69.6,78.16 69.12,77.44 68.48,76.72 C67.36,77.04 66.16,77.44 65.04,77.92 C62.88,78.88 60.96,80.08 59.04,81.52 C60.24,82.56 61.2,83.68 62,84.72 C62.64,85.6 63.2,86.56 63.76,87.6 C65.28,86.72 67.12,86.24 68.72,85.52 C69.6,85.2 70.48,84.8 71.28,84.48 Z" id="XMLID_863_" fill="#F6516B"></path>
                <path d="M114.64,55.84 C117.68,56.64 120.48,58.08 123.36,59.2 C122.88,58.24 122.56,57.2 122.16,56.16 C121.52,54.56 120.8,52.88 120.08,51.28 C119.68,50.4 119.28,49.44 118.88,48.56 C118.48,47.68 118.08,46.32 117.36,45.68 C116.32,44.8 114.32,44.48 112.88,44.48 C112.88,44.56 112.8,44.64 112.8,44.72 C110.08,47.92 107.52,51.36 104.88,54.56 C108.08,54.32 111.6,55.04 114.64,55.84 Z" id="XMLID_864_" fill="#E7EAF3"></path>
                <path d="M123.52,43.44 C123.92,43.28 124.4,43.12 124.8,43.04 C126.32,42.48 127.92,42 129.52,41.6 C128.56,41.2 127.52,40.8 126.56,40.48 C124.56,40.88 122.56,41.44 120.64,42 C120.32,42.08 120,42.24 119.6,42.32 C120.72,42.48 121.76,42.8 122.88,43.28 C123.12,43.2 123.36,43.28 123.52,43.44 Z" id="XMLID_865_" fill="#E7EAF3"></path>
                <path d="M159.52,40.96 C161.2,41.44 162.8,41.6 164.56,41.84 C164,41.36 162.96,41.04 162.56,40.88 C162.24,40.72 162.32,40.16 162.72,40.24 C163.76,40.32 164.8,40.24 165.84,40.24 C166.72,40.24 167.6,40.32 168.48,40.32 C170.4,40.4 172.24,40.56 174.16,40.72 C177.92,41.04 181.6,41.68 185.2,42.48 C185.2,42.48 185.28,42.48 185.28,42.48 C185.36,42.4 185.44,42.4 185.52,42.32 C185.52,42.32 185.52,42.32 185.52,42.32 C185.52,42 185.36,41.76 185.04,41.6 C184.64,41.2 183.84,40.8 183.28,40.64 C181.04,39.84 178.56,39.84 176.24,39.6 C170.64,39.04 165.12,38.64 159.52,38.56 C156.96,38.48 154.4,38.48 151.84,38.56 C151.52,38.56 151.12,38.56 150.8,38.56 C152.08,38.72 153.36,39.12 154.64,39.44 C156.32,40 157.92,40.48 159.52,40.96 Z" id="XMLID_866_" fill="#F6516B"></path>
                <path d="M204.56,41.92 C205.52,39.28 206.8,36.72 208,34.16 C209.28,31.44 210.72,28.8 212.24,26.16 C213.2,24.48 214.24,22.72 215.28,21.04 C210.96,27.36 206.88,33.76 202.8,40.24 C202.88,40.48 202.72,40.72 202.48,40.72 C202.24,41.12 202,41.52 201.68,42 C202.64,42 203.6,41.92 204.56,41.92 Z" id="XMLID_867_" fill="#F6516B"></path>
                <path d="M208.24,34.32 C207.04,36.8 205.92,39.44 204.72,41.92 C205.2,41.92 205.68,41.92 206.16,42 C207.04,39.6 208.32,37.36 209.44,35.12 C212.56,29.04 215.92,23.28 219.92,17.76 C222,14.88 224.16,12.16 226.32,9.36 C227.84,7.36 229.2,4.8 231.36,3.44 C231.44,3.36 231.6,3.52 231.52,3.6 C231.36,3.68 231.28,3.84 231.12,3.92 C231.12,3.92 231.12,3.92 231.12,3.92 C230.08,5.12 229.52,6.8 228.8,8.16 C228,9.76 226.96,11.36 226.08,12.88 C224.16,16.24 222.16,19.44 220.48,22.88 C218.8,26.4 217.28,30 215.92,33.6 C214.88,36.48 214.16,39.36 213.52,42.24 C216.48,42.32 219.52,42.4 222.48,42.56 C222.8,42.56 223.12,42.56 223.44,42.64 C224.56,40.16 225.6,37.76 226.4,35.2 C227.68,31.44 229.04,27.68 230.16,23.92 C231.36,20.08 232.24,16.16 232.64,12.08 C232.96,8.32 232.72,4.56 233.36,0.8 C232.48,0.88 231.52,1.2 230.64,1.76 C227.92,3.44 226,6.24 224.08,8.72 C223.44,9.6 222.72,10.48 222.08,11.28 C221.36,12.4 220.48,13.52 219.68,14.64 C218.8,15.84 218,17.12 217.12,18.4 C215.44,20.96 213.92,23.52 212.4,26.16 C210.96,28.96 209.6,31.6 208.24,34.32 Z" id="XMLID_868_" fill="#F6516B"></path>
                <path d="M188.72,42.88 C190.64,42.16 192.88,42.16 194.88,42.24 C196.96,42.32 198.96,42.48 201.04,42.48 C201.04,42.32 201.12,42.16 201.28,42.08 C201.28,42 201.28,42 201.28,41.92 C201.52,41.52 201.68,41.12 201.92,40.72 C198.96,40.4 196,40.48 193.04,40.32 C190.88,40.24 188.72,40.24 186.56,40.24 C187.44,40.96 188.24,41.84 188.72,42.88 Z" id="XMLID_869_" fill="#F6516B"></path>
                <path d="M123.04,44.08 C121.52,44.64 120.08,45.28 118.56,45.76 C118.96,46.32 119.2,47.04 119.52,47.76 C120.48,49.84 121.44,51.92 122.32,54.08 C122.4,54.32 124.08,57.84 124.4,59.36 C125.12,58.88 126.16,58.64 126.96,58.4 C128.08,58 129.28,57.76 130.48,57.44 C129.12,54.32 128.24,50.96 126.48,48 C125.6,46.48 124.48,45.36 123.2,44.24 C123.2,44.24 123.12,44.16 123.04,44.08 Z" id="XMLID_870_" fill="#E7EAF3"></path>
                <path d="M240.24,13.04 C240.48,16.96 240.24,20.8 239.76,24.64 C239.28,28.8 238.56,32.96 238.16,37.12 C237.92,39.44 238.24,42.08 237.44,44.32 C238.64,44.56 239.92,44.72 240.96,45.2 C240.96,45.12 240.96,45.04 240.96,44.96 C242.16,37.44 242.72,29.84 242.88,22.24 C243.04,16.16 243.04,8.72 238.96,3.68 C238.32,2.88 237.6,2.24 236.88,1.84 C237.84,2.88 238.48,4.24 238.96,5.52 C239.76,7.92 240.08,10.48 240.24,13.04 Z" id="XMLID_871_" fill="#F6516B"></path>
                <path d="M133.92,44.24 C134.88,45.44 135.76,46.64 136.64,47.84 C137.52,49.04 138.32,50.32 139.04,51.6 C139.52,52.48 140.32,53.52 140.64,54.56 C142.24,54.16 143.92,53.68 145.68,53.2 C145.84,53.12 146,53.12 146.08,53.04 C145.84,52.48 145.68,51.92 145.44,51.36 C145.2,50.72 144.88,50.08 144.56,49.44 C143.92,48.16 143.12,46.88 142.16,45.76 C141.28,44.64 140.24,43.6 139.04,42.64 C138,41.84 136.72,41.2 135.76,40.32 C134.4,40.56 133.04,40.88 131.76,41.2 C131.52,41.28 131.36,41.28 131.12,41.36 C132.4,42.08 133.2,43.36 133.92,44.24 Z" id="XMLID_872_" fill="#E7EAF3"></path>
                <path d="M130.56,41.68 C130.56,41.76 130.48,41.92 130.32,41.84 C130.24,41.84 130.16,41.76 130.16,41.76 C128.4,42.24 126.64,42.8 124.88,43.36 C124.56,43.44 124.32,43.52 124,43.68 C125.12,44.4 126,45.44 126.72,46.48 C128.96,49.68 129.92,53.6 131.28,57.2 C131.76,57.12 132.24,56.96 132.72,56.88 C134.72,56.24 137.04,55.52 139.68,54.8 C139.04,54 138.64,52.8 138.16,52 C137.36,50.72 136.56,49.44 135.68,48.16 C134.88,46.96 134,45.84 133.04,44.72 C132.24,43.76 131.04,42.8 130.64,41.6 C130.64,41.68 130.64,41.68 130.56,41.68 Z" id="XMLID_873_" fill="#E7EAF3"></path>
                <path d="M184.8,43.84 C184.8,43.84 184.72,43.76 184.8,43.84 C183.28,44.88 181.12,45.44 179.6,45.92 C176.72,46.88 173.92,47.92 171.04,48.88 C168.4,49.76 165.68,50.32 162.96,50.96 C161.92,51.2 160.96,51.44 159.92,51.68 C161.44,51.6 162.96,51.6 164.4,51.44 C169.6,51.12 174.8,50.48 179.68,48.56 C182,47.6 186,45.92 186.24,43.12 C186,43.2 185.84,43.28 185.6,43.36 C185.52,43.68 185.2,43.92 184.8,43.84 Z" id="XMLID_874_" fill="#F6516B"></path>
                <path d="M116.88,60.88 C116.24,60.56 115.52,60.32 114.88,60 C115.92,60.72 116.88,61.52 117.76,62.32 C118.64,63.04 119.44,63.84 120.32,64.64 C120.8,65.12 121.28,65.68 122.08,65.68 C123.92,65.6 125.84,64.48 127.44,63.76 C129.2,62.96 130.96,62.16 132.8,61.6 C136.8,60.32 140.8,59.28 144.88,58.32 C148.8,57.36 152.8,56.24 156.8,55.52 C160.8,54.8 164.8,54.32 168.8,53.6 C172.24,52.96 175.6,52.08 178.8,50.8 C177.28,51.2 175.68,51.52 174.08,51.76 C172.4,52.08 170.72,52.32 169.04,52.48 C168.48,52.56 167.92,52.64 167.44,52.72 C162.4,53.44 157.52,54.4 152.56,55.68 C142.48,58.24 132.48,61.12 122.4,63.68 C122.24,63.76 122.16,63.52 122.16,63.44 C120.4,62.64 118.72,61.68 116.88,60.88 Z" id="XMLID_875_" fill="#F6516B"></path>
                <path d="M59.76,71.36 C56.4,73.6 53.52,76.08 51.04,79.2 C51.28,79.12 51.6,79.04 51.92,78.96 C53.44,78.64 55.04,79.04 56.4,79.76 C57.44,78.16 59.44,76.96 60.96,75.92 C62.32,75.04 63.76,74.32 65.28,73.84 C65.04,73.68 64.8,73.52 64.56,73.36 C63.04,72.4 61.44,71.92 59.76,71.36 Z" id="XMLID_876_" fill="#F6516B"></path>
                <path d="M161.44,75.76 C148.8,76.16 136.16,80.08 124.8,85.6 C123.04,86.48 121.28,87.44 119.52,88.4 C119.6,89.52 119.6,90.64 119.6,91.76 C128.4,87.04 138,84.24 147.6,81.6 C152.48,80.24 157.52,79.04 162.64,79.2 C164,79.28 166.24,79.2 167.12,80.48 C167.44,81.04 167.44,81.6 167.44,82.24 C167.36,83.04 167.2,83.76 167.04,84.56 C168.32,82.32 170.4,79.68 168.96,77.44 C167.6,75.12 163.68,75.68 161.44,75.76 Z" id="XMLID_877_" fill="#F6516B"></path>
                <path d="M113.04,99.52 C114.8,98 116.64,96.64 118.56,95.36 C125.6,90.64 133.52,87.12 141.84,85.28 C144,84.8 146.16,84.4 148.4,84.48 C150.32,84.48 152.24,84.72 154.16,85.04 C158.16,85.68 162.24,86.56 166.32,85.92 C166.48,84.4 167.2,81.52 166,80.64 C164.88,79.84 162.8,80.08 161.52,80.08 C158.56,80.08 155.6,80.56 152.64,81.28 C146.72,82.64 140.8,84.4 134.96,86.24 C123.28,90.08 112.56,95.44 104.08,104.4 C105.2,104.4 106.4,104.32 107.52,104.32 C107.44,104.24 107.44,104.08 107.6,103.92 C108.08,103.6 108.64,103.28 109.12,103.04 C110.4,101.76 111.76,100.64 113.04,99.52 Z" id="XMLID_878_" fill="#F6516B"></path>
                <path d="M120.48,100.32 C116.4,100.8 112.56,102.08 108.88,103.84 C108.72,104 108.56,104.16 108.4,104.24 C125.36,104.24 142.32,106.56 159.12,109.2 C176.08,111.84 193.04,114.88 210.16,116.48 C218.72,117.28 227.28,117.76 235.84,117.68 C244.96,117.52 254.56,117.04 262.96,113.04 C264,112.56 265.36,112 266.24,111.12 C266.88,110.48 267.04,109.84 266.88,109.44 C265.68,110.08 264.4,110.48 263.04,110.72 C259.52,113.2 255.04,114.08 250.88,114.88 C246.48,115.68 242.16,116.4 237.68,116.56 C232.4,116.72 227.04,116.32 221.84,115.76 C216.56,115.2 211.36,114.4 206.16,113.52 C203.68,113.12 201.2,112.8 198.72,112.56 C197.04,112.4 195.28,112.16 193.6,111.68 C190.96,111.44 188.24,111.12 185.6,110.72 C179.84,109.92 174.08,108.88 168.32,108.48 C168.16,108.48 168.16,108.24 168.32,108.24 C174.8,108.56 181.28,109.28 187.76,110 C193.36,110.64 199.04,110.88 204.72,111.28 C210.48,111.68 216.24,112.24 222.08,112.48 C227.68,112.8 233.28,112.72 238.88,112.24 C241.12,112.08 243.28,111.76 245.44,111.44 C242,111.36 238.48,111.04 235.04,110.88 C212.88,109.44 190.8,106.8 168.64,104.56 C157.6,103.44 146.64,101.68 135.6,100.56 C130.48,100.32 125.44,99.76 120.48,100.32 Z" id="XMLID_879_" fill="#F6516B"></path>
                <path d="M116.72,93.44 C117.52,92.96 118.4,92.48 119.28,92 C119.28,90.88 119.28,89.76 119.2,88.64 C115.52,90.8 111.92,93.2 108.64,95.92 C106.4,97.76 104.48,100 102.24,101.92 C101.2,102.88 100.08,103.68 98.8,104.32 C98.08,104.72 97.36,105.04 96.64,105.36 C98.88,104.64 101.12,104.08 103.44,103.92 C103.68,103.92 103.84,104 103.84,104.24 C107.28,99.84 111.92,96.32 116.72,93.44 Z" id="XMLID_880_" fill="#F6516B"></path>
                <path d="M108.88,67.36 C109.44,66.16 108.56,64.64 108,63.6 C106.56,60.8 104.88,58.24 102.48,56.16 C102.48,56.16 102.48,56.16 102.4,56.16 C102.24,56.16 102.16,56.08 102.16,55.92 C102,55.84 101.92,55.68 101.76,55.6 C92.4,57.92 83.04,60.4 74,64 C69.76,65.76 65.6,67.68 61.68,70.08 C63.28,69.92 65.04,70.64 66.4,71.04 C68.88,71.84 71.28,72.88 73.44,74.48 C75.28,75.84 77.12,78.32 79.68,78.24 C82.16,78.16 82.8,75.44 82.24,73.44 C82.24,73.44 82.24,73.36 82.24,73.36 C82.16,73.2 82.08,73.12 82,72.96 C82,72.96 82,72.88 82.08,72.96 C82.16,73.04 82.24,73.2 82.32,73.28 C82.4,72.96 82.72,72.8 82.96,72.88 C84.64,73.28 86.32,73.92 88.08,74 C89.92,74.08 91.84,73.28 93.68,72.8 C97.2,71.84 100.8,70.96 104.32,70 C105.68,69.44 108.16,68.8 108.88,67.36 Z" id="XMLID_881_" fill="#F6516B"></path>
                <path d="M75.28,87.36 C74.4,84.72 73.04,82.16 71.44,79.84 C71.6,80.16 71.76,80.48 71.92,80.8 C73.04,83.2 74.4,85.6 75.28,88.16 C76.4,91.28 76.64,94.72 76.72,98 C76.72,98.88 76.72,99.76 76.72,100.64 C76.8,99.92 76.88,99.2 76.88,98.4 C77.04,94.72 76.48,90.96 75.28,87.36 Z" id="XMLID_882_" fill="#F6516B"></path>
                <path d="M216.48,55.52 C215.44,56.56 213.92,57.12 212.64,57.68 C210.88,58.4 209.2,58.96 207.52,59.84 C200.64,63.2 193.52,66.16 186.8,69.84 C180.56,73.28 174.8,77.36 169.84,82.48 C169.84,82.56 169.76,82.64 169.76,82.72 C172.32,80.96 175.52,79.84 178.16,78.64 C183.28,76.24 188.48,73.92 193.6,71.52 C203.44,66.88 212.88,61.92 222.16,56.32 C221.2,56.32 220.24,56.32 219.28,56.32 C218.24,56.32 217.2,56.32 216.48,55.52 Z" id="XMLID_883_" fill="#F6516B"></path>
                <path d="M61.6,77.04 C60.08,78 58.8,79.2 57.28,80.16 C57.84,80.48 58.32,80.88 58.8,81.28 C60.24,79.52 62.56,78.32 64.64,77.36 C65.76,76.88 66.96,76.4 68.16,76 C67.76,75.6 67.28,75.2 66.8,74.8 C64.96,75.2 63.2,76.08 61.6,77.04 Z" id="XMLID_884_" fill="#F6516B"></path>
                <path d="M277.04,51.36 C276.88,51.2 276.56,51.12 276.32,51.04 C276.72,51.28 277.12,51.6 277.44,51.92 C277.28,51.68 277.12,51.44 277.04,51.36 Z" id="XMLID_888_" fill="#F6516B"></path>
                <path d="M227.36,53.12 C224.56,52.72 221.68,52.8 218.88,52.24 C218.72,52.32 218.64,52.4 218.48,52.48 C218.16,52.72 217.76,52.96 217.52,53.28 C217.44,53.44 217.28,53.84 217.12,54.32 C217.2,54.48 217.2,54.64 217.12,54.8 C218.08,55.68 220.64,55.28 221.76,55.28 C222.48,55.28 223.2,55.28 223.92,55.28 C224,55.28 224.08,55.28 224.16,55.28 C225.2,55.28 226.32,55.28 227.36,55.36 C229.76,55.44 232.08,55.68 234.48,55.76 C240.56,56 246.72,56.16 252.8,56.24 C253.12,56.24 253.44,56.24 253.68,56.24 C248.32,55.76 243.04,55.04 237.68,54.48 C234.32,54 230.88,53.68 227.36,53.12 Z" id="XMLID_889_" fill="#F6516B"></path>
                <path d="M46.48,91.84 C46.4,91.92 46.32,91.92 46.24,91.84 C46.24,91.84 46.16,91.84 46.16,91.84 C46.08,91.84 46,91.84 46,91.76 C44.16,92.16 42,92.96 40.8,94.24 C40.08,94.96 39.76,95.68 39.68,96.48 C39.76,96.48 39.84,96.56 39.92,96.64 C40.24,97.36 40.72,97.76 41.44,98 C41.28,97.84 41.2,97.76 41.04,97.6 C41.04,97.6 41.04,97.52 41.04,97.52 C41.2,97.68 41.36,97.84 41.52,98 C42.16,98.16 42.96,98.16 43.68,98.08 C43.52,98 43.28,97.84 43.12,97.76 C43.04,97.68 43.12,97.6 43.2,97.68 C43.52,97.84 43.76,97.92 44.08,98.08 C44.4,98.08 44.64,98 44.88,98 C46.56,97.76 48.16,97.2 49.84,96.96 C49.84,94.64 48.72,92 46.48,91.84 Z" id="XMLID_890_" fill="#F6516B"></path>
                <path d="M50.4,99.28 C50.24,99.6 50,99.92 49.68,100.16 C51.68,101.44 54.4,101.28 55.92,99.36 C55.28,99.6 54.64,99.76 54.24,99.76 C53.12,99.84 51.52,99.76 50.4,99.28 Z" id="XMLID_891_" fill="#F6516B"></path>
                <path d="M46.56,99.04 C45.68,99.2 44.72,99.28 43.84,99.28 C43.84,99.28 43.84,99.28 43.84,99.28 C44.24,99.44 44.56,99.52 44.96,99.68 L44.96,99.76 C44.4,99.76 43.84,99.6 43.36,99.36 C42.64,99.36 41.92,99.28 41.2,99.04 C41.6,99.28 42,99.44 42.48,99.6 C42.48,99.6 42.48,99.68 42.48,99.68 C41.84,99.6 41.28,99.28 40.8,98.88 C40.56,98.72 40.32,98.64 40.08,98.4 C40.64,99.36 41.68,100.08 42.96,100.32 C44.24,100.64 45.52,100.4 46.8,100.16 C48,99.92 49.12,99.68 49.6,98.48 C49.28,98.56 49.04,98.64 48.72,98.72 C48,98.96 47.28,99.12 46.56,99.04 Z" id="XMLID_892_" fill="#F6516B"></path>
                <path d="M49.52,80 C51.04,77.36 53.28,75.2 55.68,73.28 C54.88,73.28 54.08,72.96 53.36,72.64 C52,72.08 50.64,71.36 49.28,70.72 C46.48,69.28 43.44,68.24 40.56,66.96 C37.04,65.36 33.52,63.68 29.92,62.16 C28.08,61.44 26.24,60.72 24.48,60 C22.64,59.28 20.88,58.48 19.12,57.76 C16.32,56.72 13.12,56.48 10.8,54.48 C10.48,54.24 10.32,53.76 10.56,53.44 C11.44,52.24 12.72,51.6 14,50.96 C13.04,50.88 12.08,50.8 11.12,50.72 C9.2,50.64 6.56,50.32 5.2,51.92 C5.12,52 5.12,52 5.04,52 C4.96,52.16 4.96,52.32 4.96,52.56 C4.96,52.64 4.8,52.64 4.8,52.56 C4.8,52.32 4.8,52.16 4.88,52 C4.72,51.92 4.64,51.84 4.72,51.68 C5.2,50.08 6.88,49.52 8.48,49.28 C8.88,49.12 9.2,48.96 9.6,48.8 C10.4,48.48 11.2,48.16 12.08,47.84 C11.76,47.92 11.36,47.92 11.04,48 C8.48,48.4 5.36,48.56 3.04,49.84 C2,50.4 1.12,51.44 2.16,52.48 C2.24,52.56 2.4,52.64 2.48,52.72 C2.64,52.88 2.88,52.96 3.12,53.12 C3.68,53.52 4.24,53.84 4.8,54.24 C13.2,59.6 21.92,64.56 30.56,69.52 C36.8,73.12 42.96,76.8 49.28,80.32 C49.28,80.24 49.44,80.16 49.52,80 Z" id="XMLID_893_" fill="#F6516B"></path>
                <path d="M68.08,108.16 C66.88,108.08 65.6,108.08 64.4,107.84 C64.16,107.76 64,107.6 63.92,107.44 C63.6,107.6 63.28,107.76 62.88,107.92 C61.76,108.32 60.72,108.24 59.76,108 C60.56,108.48 61.52,108.96 62.48,109.28 C66.24,110.56 70.4,110 74.32,109.6 C74.56,108.96 74.8,108.32 74.96,107.68 C74.24,107.92 73.44,108.08 72.64,108.16 C71.2,108.24 69.6,108.24 68.08,108.16 Z" id="XMLID_894_" fill="#F6516B"></path>
                <path d="M51.6,87.68 C49.12,87.6 48,89.36 46.88,91.12 C48.88,90.88 49.92,92.72 50.4,94.64 C50.88,94.32 51.92,94.08 52,94 C53.44,93.68 55.04,93.76 56.48,93.2 C56.48,93.2 56.56,93.2 56.56,93.2 C56.48,92.96 56.4,92.8 56.32,92.56 C55.52,90.32 54.32,87.76 51.6,87.68 Z" id="XMLID_895_" fill="#F6516B"></path>
                <path d="M75.12,91.68 C75.12,91.68 75.12,91.68 75.12,91.68 C72.16,92.4 69.36,93.44 66.4,94.16 C66.24,94.24 66.08,94.16 65.92,94 C66.16,95.44 66.4,96.88 66.48,98.32 C66.56,99.12 66.56,100.08 66.56,101.04 C66.56,101.04 66.56,101.04 66.56,101.04 C66.64,101.2 66.64,101.36 66.56,101.52 C66.56,102 66.48,102.56 66.4,103.04 C66.8,103.04 67.2,103.2 67.52,103.2 C68.48,103.44 69.52,103.68 70.48,103.84 C72.16,104 73.84,103.84 75.44,103.52 C75.44,103.44 75.44,103.28 75.44,103.2 C75.52,101.68 75.6,100.16 75.6,98.64 C75.6,96.4 75.52,94 75.12,91.68 Z" id="XMLID_896_" fill="#F6516B"></path>
                <path d="M61.68,97.84 C61.68,97.84 61.68,97.84 61.68,97.84 C60.56,98.4 58.88,98.88 57.6,98.4 C57.36,99.04 57.04,99.68 56.56,100.16 C57.28,100.56 59.6,99.84 60,99.6 C60.72,99.2 61.28,98.56 61.68,97.84 Z" id="XMLID_897_" fill="#F6516B"></path>
                <path d="M57.92,94.72 C59.2,94.4 60.4,94 61.52,93.12 C61.68,92.96 61.92,92.96 62.16,92.96 C62.16,92.96 62.16,92.88 62.16,92.88 C61.6,91.12 60.56,89.52 59.28,88.16 C57.76,86.56 56.08,86.48 54.32,87.52 C55.92,88.56 56.88,90.56 57.52,92.48 C57.68,93.2 57.84,93.92 57.92,94.72 Z" id="XMLID_898_" fill="#F6516B"></path>
                <path d="M273.84,49.2 C270.96,48.56 267.84,48.24 267.04,48.16 C260.88,47.2 254.64,46 248.4,45.52 C246.64,45.36 244.88,45.44 243.12,45.6 C243.04,45.6 242.96,45.6 242.8,45.6 C242.48,45.6 242.16,45.6 241.84,45.6 C241.92,45.52 242,45.44 242,45.28 C243.2,38 243.76,30.64 243.92,23.28 C244.08,16.88 244.16,9.28 240.24,3.84 C238.96,2.08 237.12,0.48 234.88,0.16 C232,-0.32 229.52,1.52 227.6,3.44 C225.04,6 222.88,9.04 220.72,11.92 C218.64,14.72 216.56,17.52 214.56,20.4 C210.16,26.72 206,33.2 202.32,40 C201.52,39.52 200.4,39.68 199.52,39.68 C197.68,39.6 195.76,39.6 193.92,39.52 C190.8,39.44 187.12,38.88 184.08,40 C182.96,39.52 181.6,39.36 180.32,39.12 C176.4,38.64 172.4,38.24 168.4,38 C164.4,37.76 160.32,37.6 156.32,37.6 C153.2,37.6 149.92,37.44 146.72,37.84 C145.36,37.36 143.76,37.52 142.32,37.52 C140.88,37.52 139.44,37.6 137.92,37.68 C134.96,37.84 132,38.24 129.12,38.72 C126.16,39.28 123.2,39.92 120.24,40.8 C117.6,41.6 114.88,42.48 112.4,43.76 C112.4,43.76 112.4,43.76 112.32,43.76 C112.16,43.84 112.08,43.92 111.92,44 C111.76,44.08 111.76,44.24 111.76,44.4 C110.32,46 105.84,51.36 103.92,54.16 C94.8,56.48 85.6,58.8 76.72,62.08 C76.72,61.84 76.56,61.68 76.32,61.6 C67.68,59.04 59.04,56.4 50.4,53.84 C41.84,51.28 33.36,48.64 24.72,46.32 C23.52,46 22.24,46 20.96,46 C17.84,46.08 14.72,46.56 11.6,46.96 C9.12,47.28 6.56,47.6 4.16,48.32 C1.84,48.96 -1.68,51.28 1.36,53.44 C4.24,55.52 7.44,57.36 10.56,59.2 C15.44,62.16 20.32,65.04 25.2,67.84 C30.48,70.88 35.76,73.92 41.04,76.96 C43.44,78.32 45.84,79.92 48.4,80.96 C46.88,83.04 46.64,86.32 47.04,88.8 C46.48,89.52 46.08,90.4 45.92,91.28 C45.92,91.28 45.84,91.28 45.84,91.28 C42.96,91.44 39.2,92.88 38.4,95.92 C37.6,99.12 40.72,101.28 43.52,101.44 C45.04,101.52 46.8,101.28 48.24,100.72 C49.68,101.92 51.52,102.4 53.2,102 C54.48,105.28 57.04,107.92 60.24,109.52 C64.24,111.52 68.4,110.96 72.72,110.64 C77.6,110.24 82.64,110.16 87.44,109.12 C90,108.56 92.48,107.76 94.96,106.96 C97.36,106.24 99.76,105.68 102.16,105.04 C102.16,105.04 102.24,105.04 102.24,105.04 C138.16,104.8 173.04,113.76 208.64,117.36 C217.2,118.24 225.84,118.72 234.4,118.64 C243.44,118.56 252.88,118.16 261.36,114.72 C263.28,113.92 269.04,111.92 267.44,108.8 C266.88,107.76 265.6,107.28 264.48,106.96 C262,106.32 259.44,106 256.96,105.52 C247.28,103.76 237.52,102.08 227.84,100.56 C216.8,98.8 205.76,97.28 194.64,95.84 C184.88,94.64 174.4,93.2 166.88,86.32 C166.96,86.32 166.96,86.24 167.04,86.24 C167.44,85.76 167.84,85.2 168.24,84.64 C169.52,83.52 171.04,82.72 172.56,82 C175.2,80.72 177.84,79.52 180.48,78.32 C185.44,76.08 190.48,73.84 195.44,71.52 C205.12,67.04 215.04,62.32 223.84,56.16 C224,56.16 224.24,56.16 224.4,56.16 C227.04,56.16 229.68,56.4 232.4,56.56 C239.44,56.88 246.48,57.04 253.52,57.12 C257.04,57.12 260.48,56.96 264,56.72 C266.88,56.48 269.84,56.32 272.64,55.76 C273.36,55.6 274.32,55.44 275.36,55.12 C276.88,54.72 278.4,54 278.8,52.88 C280,51.04 277.04,49.92 273.84,49.2 Z M238.96,3.68 C243.04,8.64 243.04,16.16 242.88,22.24 C242.72,29.84 242.16,37.44 240.96,44.96 C240.96,45.04 240.96,45.12 240.96,45.2 C239.84,44.72 238.56,44.56 237.44,44.32 C238.24,42.08 238,39.36 238.16,37.12 C238.56,32.96 239.28,28.8 239.76,24.64 C240.24,20.8 240.48,16.88 240.24,13.04 C240.08,10.48 239.76,7.92 238.96,5.52 C238.48,4.24 237.84,2.88 236.88,1.84 C237.6,2.32 238.32,2.96 238.96,3.68 Z M219.76,14.88 C220.56,13.76 221.44,12.72 222.16,11.52 C222.8,10.64 223.44,9.76 224.16,8.96 C226.08,6.48 228,3.68 230.72,2 C231.6,1.44 232.56,1.12 233.44,1.04 C232.8,4.72 233.04,8.56 232.72,12.32 C232.4,16.32 231.44,20.24 230.24,24.16 C229.12,28 227.68,31.68 226.48,35.44 C225.6,38 224.56,40.4 223.52,42.88 C223.2,42.88 222.88,42.88 222.56,42.8 C219.6,42.64 216.64,42.56 213.6,42.48 C214.24,39.52 214.96,36.64 216,33.84 C217.36,30.16 218.8,26.56 220.56,23.12 C222.24,19.68 224.24,16.4 226.16,13.12 C227.04,11.52 228.08,10 228.88,8.4 C229.6,6.96 230.16,5.36 231.2,4.16 C231.2,4.16 231.2,4.16 231.2,4.16 C231.36,4 231.44,3.92 231.6,3.84 C231.68,3.76 231.6,3.6 231.44,3.68 C229.28,5.12 227.92,7.6 226.4,9.6 C224.24,12.4 222.08,15.2 220,18 C216,23.52 212.64,29.36 209.52,35.36 C208.4,37.6 207.12,39.84 206.24,42.24 C205.76,42.24 205.28,42.24 204.8,42.16 C206,39.68 207.04,37.04 208.32,34.56 C209.68,31.84 211.04,29.2 212.56,26.56 C214.08,23.92 215.6,21.36 217.28,18.8 C218,17.36 218.88,16.08 219.76,14.88 Z M202.48,40.8 C202.72,40.8 202.88,40.56 202.8,40.32 C206.8,33.84 210.96,27.36 215.28,21.12 C214.24,22.8 213.28,24.48 212.24,26.24 C210.72,28.88 209.36,31.52 208,34.24 C206.8,36.72 205.52,39.36 204.56,42 C203.6,42 202.64,42 201.68,42.08 C201.92,41.68 202.24,41.2 202.48,40.8 Z M193.04,40.4 C196,40.48 199.04,40.48 201.92,40.8 C201.68,41.2 201.52,41.6 201.28,42 C201.28,42.08 201.28,42.16 201.28,42.16 C201.12,42.24 201.04,42.4 201.04,42.56 C198.96,42.56 196.96,42.4 194.88,42.32 C192.8,42.24 190.64,42.16 188.72,42.96 C188.32,41.92 187.44,41.12 186.56,40.4 C188.64,40.24 190.8,40.32 193.04,40.4 Z M186.24,43.12 C186,45.92 182,47.6 179.68,48.56 C174.8,50.48 169.6,51.12 164.4,51.44 C162.88,51.52 161.44,51.6 159.92,51.68 C160.88,51.44 161.92,51.2 162.96,50.96 C165.68,50.4 168.4,49.76 171.04,48.88 C173.92,47.92 176.72,46.88 179.6,45.92 C181.2,45.36 183.36,44.88 184.8,43.84 C184.8,43.84 184.8,43.84 184.88,43.84 C185.28,43.92 185.6,43.68 185.76,43.36 C185.84,43.28 186.08,43.2 186.24,43.12 Z M122.4,63.68 C132.48,61.12 142.48,58.24 152.56,55.68 C157.52,54.4 162.4,53.44 167.44,52.72 C168,52.64 168.56,52.56 169.04,52.48 C170.72,52.32 172.4,52.08 174.08,51.76 C175.68,51.52 177.2,51.2 178.8,50.8 C175.6,52.08 172.16,52.96 168.8,53.6 C164.8,54.32 160.8,54.8 156.8,55.52 C152.8,56.24 148.88,57.36 144.88,58.32 C140.8,59.28 136.8,60.32 132.8,61.6 C130.96,62.16 129.2,63.04 127.44,63.76 C125.84,64.48 123.92,65.52 122.08,65.68 C121.36,65.76 120.88,65.12 120.32,64.64 C119.44,63.84 118.64,63.12 117.76,62.32 C116.8,61.52 115.84,60.72 114.88,60 C115.6,60.32 116.24,60.56 116.88,60.88 C118.64,61.68 120.4,62.72 122.16,63.44 C122.16,63.52 122.24,63.68 122.4,63.68 Z M133.12,44.72 C134,45.84 134.88,47.04 135.76,48.16 C136.64,49.44 137.44,50.72 138.24,52 C138.72,52.8 139.12,54 139.76,54.8 C137.12,55.52 134.8,56.24 132.8,56.88 C132.32,56.96 131.84,57.12 131.36,57.2 C130,53.52 129.04,49.68 126.8,46.48 C126.08,45.44 125.2,44.4 124.08,43.68 C124.4,43.6 124.64,43.44 124.96,43.36 C126.72,42.8 128.48,42.24 130.24,41.76 C130.32,41.76 130.4,41.84 130.4,41.84 C130.48,41.92 130.64,41.76 130.64,41.68 C130.72,41.68 130.8,41.68 130.88,41.6 C131.2,42.8 132.4,43.84 133.12,44.72 Z M131.36,41.52 C131.6,41.44 131.76,41.44 132,41.36 C133.36,41.04 134.64,40.72 136,40.48 C136.96,41.36 138.24,42 139.28,42.8 C140.4,43.68 141.44,44.8 142.4,45.92 C143.28,47.04 144.08,48.24 144.8,49.6 C145.12,50.24 145.44,50.88 145.68,51.52 C145.92,52.08 146,52.72 146.32,53.2 C146.16,53.28 146,53.28 145.92,53.36 C144.16,53.84 142.48,54.24 140.88,54.72 C140.56,53.68 139.76,52.64 139.28,51.76 C138.56,50.48 137.68,49.2 136.88,48 C136,46.8 135.12,45.52 134.16,44.4 C133.2,43.36 132.4,42.08 131.36,41.52 Z M126.56,48.08 C128.32,51.04 129.12,54.4 130.56,57.52 C129.36,57.76 128.24,58.08 127.04,58.48 C126.24,58.72 125.28,58.96 124.48,59.44 C124.16,57.92 122.48,54.32 122.4,54.16 C121.52,52.08 120.56,49.92 119.6,47.84 C119.28,47.12 118.96,46.48 118.64,45.84 C120.16,45.36 121.6,44.72 123.12,44.16 C123.2,44.24 123.28,44.32 123.36,44.32 C124.56,45.44 125.68,46.56 126.56,48.08 Z M151.92,38.56 C154.48,38.56 157.04,38.56 159.6,38.56 C165.2,38.72 170.8,39.04 176.32,39.6 C178.64,39.84 181.2,39.84 183.36,40.64 C183.92,40.8 184.72,41.2 185.12,41.6 C185.36,41.76 185.52,42 185.6,42.32 C185.6,42.32 185.6,42.32 185.6,42.32 C185.52,42.4 185.44,42.4 185.36,42.48 C185.36,42.48 185.36,42.48 185.28,42.48 C181.6,41.6 177.92,41.04 174.24,40.72 C172.32,40.56 170.48,40.4 168.56,40.32 C167.68,40.24 166.8,40.24 165.92,40.24 C164.88,40.24 163.84,40.32 162.8,40.24 C162.4,40.16 162.32,40.8 162.64,40.88 C163.04,41.04 164.08,41.36 164.64,41.84 C162.96,41.68 161.28,41.44 159.6,40.96 C158,40.56 156.4,40 154.72,39.52 C153.44,39.12 152.16,38.8 150.88,38.64 C151.2,38.56 151.6,38.56 151.92,38.56 Z M152.56,44.4 C153.28,45.84 153.68,47.2 153.76,48.72 C153.84,49.36 153.84,50.32 154.16,50.96 C153.76,51.04 153.44,51.2 153.04,51.28 C152.88,49.28 152.72,47.44 152,45.52 C151.28,43.6 150.24,41.76 148.96,40.16 C150.4,41.36 151.68,42.72 152.56,44.4 Z M145.92,38.96 C146,39.04 146.08,39.12 146.16,39.2 C148,40.08 149.84,43.12 150.56,44.72 C151.12,45.92 151.52,47.28 151.76,48.56 C151.68,48.32 151.52,48.08 151.44,47.84 C150.8,46.48 150,45.2 149.04,44 C147.68,42.24 145.92,40.32 144,39.04 C144.64,39.12 145.28,39.04 145.92,38.96 Z M142.56,39.28 C142.64,39.28 142.8,39.28 142.88,39.28 C143.76,40 144.72,40.64 145.52,41.44 C146.56,42.4 147.52,43.44 148.4,44.56 C149.28,45.76 150.08,46.96 150.72,48.32 C151.04,48.96 151.36,49.6 151.6,50.24 C151.76,50.64 151.92,51.12 152.08,51.6 C150.64,51.92 149.2,52.32 147.76,52.72 C147.52,52.8 147.2,52.88 146.96,52.96 C146.88,51.68 146,50.24 145.44,49.2 C144.72,47.84 143.84,46.56 142.88,45.36 C141.92,44.16 140.8,43.12 139.6,42.16 C138.72,41.52 137.76,40.72 136.72,40.32 C137.44,40.16 138.16,40.08 138.88,39.92 C140.16,39.68 141.36,39.44 142.56,39.28 Z M138.16,38.8 C139.44,38.72 140.8,38.64 142.08,38.64 C142.16,38.72 142.24,38.72 142.24,38.8 C141.2,38.96 140.16,39.2 139.12,39.36 C137.84,39.6 136.56,39.84 135.36,40.08 C134.32,39.84 133.2,39.52 132.08,39.44 C134.16,39.12 136.16,38.88 138.16,38.8 Z M129.28,39.84 C129.76,39.76 130.24,39.68 130.72,39.6 C132.08,39.76 133.36,39.92 134.72,40.24 C133.76,40.48 132.8,40.64 131.84,40.88 C131.28,41.04 130.64,41.2 130.08,41.36 C129.12,40.88 128.16,40.56 127.12,40.24 C127.84,40.16 128.56,40 129.28,39.84 Z M120.64,41.92 C122.56,41.36 124.56,40.88 126.56,40.4 C127.52,40.8 128.56,41.12 129.52,41.52 C127.92,42 126.4,42.48 124.8,42.96 C124.4,43.12 124,43.28 123.52,43.36 C123.28,43.28 123.12,43.12 122.88,43.04 C121.76,42.64 120.72,42.24 119.6,42.08 C119.92,42.08 120.24,42 120.64,41.92 Z M118.88,42.4 C119.44,42.4 120.08,42.56 120.64,42.72 C121.44,42.96 122,43.28 122.64,43.76 C121.2,44.24 119.76,44.8 118.4,45.52 C118.08,45.12 117.68,44.72 117.12,44.48 C116.48,44.24 115.76,43.92 115.04,43.76 C116.32,43.28 117.6,42.88 118.88,42.4 Z M112.8,44.72 C112.88,44.64 112.88,44.56 112.88,44.48 C114.32,44.48 116.4,44.8 117.36,45.68 C118.16,46.4 118.48,47.68 118.88,48.56 C119.28,49.44 119.68,50.4 120.08,51.28 C120.8,52.88 121.44,54.48 122.16,56.16 C122.56,57.12 122.88,58.24 123.36,59.2 C120.48,58.08 117.68,56.64 114.64,55.84 C111.6,55.04 108.08,54.32 104.8,54.56 C107.52,51.36 110.08,48 112.8,44.72 Z M63.36,94.08 C63.04,91.44 61.36,88.96 59.44,87.2 C59.28,87.04 59.12,86.88 58.96,86.8 C59.28,86.4 59.52,86 59.84,85.6 C60.08,85.2 60.4,84.88 60.64,84.48 C62.08,86.24 63.2,88.32 63.92,90.4 C64.96,93.36 65.76,97.04 65.6,100.4 C65.52,100.4 65.52,100.32 65.44,100.32 C64.96,100.08 64.56,99.76 64.08,99.52 C63.52,99.2 62.8,98.96 62.16,98.88 C63.12,97.6 63.52,95.76 63.36,94.08 Z M63.76,87.68 C63.28,86.72 62.72,85.76 62,84.8 C61.2,83.76 60.24,82.56 59.04,81.6 C60.88,80.16 62.88,78.96 65.04,78 C66.16,77.52 67.28,77.12 68.48,76.8 C69.04,77.52 69.6,78.16 70.08,79.04 C70.56,80 70.96,80.96 71.36,81.92 C71.68,82.64 72,83.36 72.32,84.08 C71.92,84.24 71.6,84.4 71.28,84.56 C70.4,84.96 69.6,85.28 68.72,85.68 C67.12,86.24 65.36,86.8 63.76,87.68 Z M64.64,77.44 C62.56,78.4 60.24,79.52 58.8,81.36 C58.32,80.96 57.84,80.56 57.28,80.24 C58.72,79.28 60.08,78 61.6,77.12 C63.2,76.16 64.96,75.28 66.8,74.96 C67.28,75.36 67.68,75.76 68.16,76.16 C66.96,76.48 65.76,76.88 64.64,77.44 Z M61.04,75.92 C59.44,76.88 57.52,78.08 56.48,79.76 C55.04,79.04 53.52,78.64 52,78.96 C51.68,79.04 51.44,79.12 51.12,79.2 C53.6,76.16 56.4,73.6 59.84,71.36 C61.52,72 63.2,72.4 64.72,73.36 C64.96,73.52 65.2,73.68 65.44,73.84 C63.84,74.32 62.32,75.04 61.04,75.92 Z M30.48,69.52 C21.84,64.48 13.2,59.52 4.72,54.24 C4.16,53.84 3.6,53.52 3.04,53.12 C2.8,52.96 2.64,52.88 2.4,52.72 C2.32,52.64 2.16,52.56 2.08,52.48 C1.04,51.44 1.92,50.48 2.96,49.84 C5.2,48.56 8.4,48.4 10.96,48 C11.28,47.92 11.68,47.92 12,47.84 C11.2,48.08 10.32,48.4 9.52,48.8 C9.12,48.96 8.8,49.12 8.4,49.28 C6.8,49.52 5.2,50.08 4.64,51.68 C4.56,51.84 4.64,52 4.8,52 C4.72,52.16 4.72,52.4 4.72,52.56 C4.72,52.64 4.88,52.64 4.88,52.56 C4.88,52.4 4.88,52.16 4.96,52 C5.04,52 5.12,51.92 5.12,51.92 C6.48,50.32 9.12,50.64 11.04,50.72 C12,50.8 12.96,50.88 13.92,50.96 C12.64,51.52 11.36,52.16 10.48,53.44 C10.24,53.84 10.4,54.24 10.72,54.48 C13.04,56.48 16.32,56.72 19.04,57.76 C20.88,58.4 22.64,59.28 24.4,60 C26.24,60.72 28.08,61.36 29.84,62.16 C33.44,63.68 36.96,65.36 40.48,66.96 C43.36,68.24 46.4,69.28 49.2,70.72 C50.56,71.44 51.84,72.08 53.28,72.64 C54.08,72.96 54.8,73.28 55.6,73.28 C53.2,75.2 50.96,77.44 49.44,80 C49.28,80.08 49.2,80.24 49.12,80.32 C42.88,76.88 36.72,73.12 30.48,69.52 Z M46.72,100.08 C45.52,100.32 44.16,100.56 42.88,100.24 C41.6,99.92 40.56,99.2 40,98.32 C40.24,98.48 40.48,98.64 40.72,98.8 C41.2,99.2 41.76,99.52 42.4,99.6 C42.4,99.6 42.48,99.52 42.4,99.52 C41.92,99.36 41.52,99.2 41.12,98.96 C41.76,99.2 42.56,99.28 43.28,99.28 C43.84,99.52 44.32,99.68 44.88,99.68 L44.88,99.6 C44.48,99.44 44.16,99.36 43.76,99.2 C43.76,99.2 43.76,99.2 43.76,99.2 C44.64,99.2 45.6,99.04 46.48,98.96 C47.2,99.04 47.84,98.8 48.56,98.56 C48.88,98.48 49.12,98.4 49.44,98.32 C49.04,99.6 47.92,99.84 46.72,100.08 Z M44.8,97.92 C44.56,97.92 44.32,98 44,98 C43.68,97.84 43.44,97.76 43.12,97.6 C43.04,97.6 42.96,97.68 43.04,97.68 C43.2,97.76 43.44,97.92 43.6,98 C42.88,98.08 42.08,98.08 41.44,97.92 C41.28,97.76 41.12,97.6 40.96,97.44 C40.96,97.44 40.88,97.44 40.96,97.52 C41.04,97.68 41.2,97.76 41.36,97.92 C40.72,97.68 40.16,97.36 39.84,96.56 C39.84,96.48 39.68,96.4 39.6,96.4 C39.68,95.68 40,94.88 40.72,94.16 C42,92.88 44.08,92.08 45.92,91.68 C45.92,91.76 46,91.76 46.08,91.76 C46.16,91.76 46.16,91.76 46.16,91.76 C46.24,91.84 46.32,91.84 46.4,91.76 C48.72,91.92 49.84,94.56 49.76,96.8 C48.16,97.12 46.48,97.68 44.8,97.92 Z M49.68,100.16 C50,99.92 50.24,99.6 50.4,99.28 C51.52,99.76 53.12,99.84 54.24,99.76 C54.64,99.76 55.28,99.6 55.92,99.36 C54.4,101.28 51.68,101.52 49.68,100.16 Z M56.48,93.2 C55.04,93.76 53.52,93.68 52,94 C51.92,94 50.96,94.32 50.4,94.64 C49.92,92.72 48.88,90.88 46.88,91.12 C48,89.28 49.12,87.52 51.6,87.68 C54.32,87.76 55.6,90.32 56.4,92.56 C56.48,92.8 56.56,92.96 56.64,93.2 C56.48,93.2 56.48,93.2 56.48,93.2 Z M54.24,87.52 C56,86.48 57.68,86.56 59.2,88.16 C60.48,89.44 61.6,91.12 62.08,92.88 C62.08,92.88 62.08,92.96 62.08,92.96 C61.92,92.88 61.68,92.96 61.44,93.12 C60.32,94 59.12,94.4 57.84,94.72 C57.76,94 57.52,93.2 57.36,92.48 C56.8,90.56 55.84,88.64 54.24,87.52 Z M56.64,100.16 C57.12,99.6 57.44,99.04 57.68,98.4 C58.96,98.88 60.64,98.48 61.68,97.84 C61.68,97.84 61.68,97.84 61.68,97.84 C61.28,98.56 60.72,99.2 60,99.6 C59.68,99.84 57.36,100.56 56.64,100.16 Z M74.32,109.44 C70.4,109.84 66.24,110.4 62.48,109.12 C61.52,108.8 60.64,108.32 59.76,107.84 C60.72,108.16 61.76,108.16 62.88,107.76 C63.28,107.6 63.6,107.52 63.92,107.28 C64,107.52 64.16,107.68 64.4,107.68 C65.6,107.92 66.88,107.92 68.08,108 C69.6,108.08 71.2,108.08 72.72,107.92 C73.44,107.84 74.24,107.68 75.04,107.44 C74.8,108.24 74.56,108.8 74.32,109.44 Z M75.44,103.6 C73.84,103.92 72.16,104.08 70.48,103.92 C69.44,103.84 68.48,103.52 67.52,103.28 C67.2,103.2 66.8,103.12 66.4,103.12 C66.48,102.64 66.56,102.08 66.56,101.6 C66.64,101.44 66.64,101.28 66.56,101.12 C66.56,101.12 66.56,101.12 66.56,101.12 C66.56,100.16 66.56,99.2 66.48,98.4 C66.4,96.96 66.24,95.52 65.92,94.08 C66,94.16 66.16,94.24 66.4,94.24 C69.36,93.52 72.16,92.4 75.12,91.76 C75.12,91.76 75.12,91.76 75.12,91.76 C75.52,94.08 75.6,96.48 75.6,98.88 C75.6,100.4 75.52,101.92 75.44,103.44 C75.44,103.44 75.44,103.52 75.44,103.6 Z M76.72,100.72 C76.72,99.84 76.72,98.96 76.72,98.08 C76.64,94.8 76.32,91.36 75.28,88.24 C74.4,85.68 73.04,83.28 71.92,80.88 C71.76,80.56 71.6,80.24 71.44,79.92 C73.12,82.24 74.4,84.8 75.28,87.44 C76.48,90.96 77.04,94.8 76.96,98.56 C76.88,99.28 76.8,100 76.72,100.72 Z M93.68,72.72 C91.92,73.2 90,74 88.08,73.92 C86.32,73.84 84.64,73.2 82.96,72.8 C82.64,72.72 82.32,72.88 82.32,73.2 C82.24,73.12 82.16,72.96 82.08,72.88 C82.08,72.88 82,72.88 82,72.88 C82.08,73.04 82.16,73.12 82.24,73.28 C82.24,73.28 82.24,73.36 82.24,73.36 C82.8,75.36 82.16,78.08 79.68,78.16 C77.12,78.24 75.28,75.76 73.44,74.4 C71.28,72.88 68.96,71.76 66.4,70.96 C65.04,70.48 63.28,69.84 61.68,70 C65.6,67.6 69.76,65.6 74,63.92 C82.96,60.32 92.32,57.84 101.76,55.52 C101.92,55.6 102,55.76 102.16,55.84 C102.16,55.92 102.24,56 102.4,56.08 C102.4,56.08 102.4,56.08 102.48,56.08 C104.88,58.08 106.48,60.72 108,63.52 C108.56,64.56 109.44,66.08 108.88,67.28 C108.24,68.8 105.68,69.44 104.32,69.84 C100.8,70.96 97.2,71.76 93.68,72.72 Z M103.36,103.92 C101.12,104.08 98.8,104.64 96.56,105.36 C97.28,104.96 98,104.64 98.72,104.32 C100,103.68 101.04,102.88 102.16,101.92 C104.4,100 106.24,97.76 108.56,95.92 C111.84,93.2 115.44,90.8 119.12,88.64 C119.2,89.76 119.2,90.88 119.2,92 C118.32,92.48 117.52,92.96 116.64,93.44 C111.84,96.32 107.28,99.84 103.76,104.16 C103.76,104 103.6,103.84 103.36,103.92 Z M107.6,104.32 C106.48,104.32 105.28,104.32 104.16,104.4 C112.72,95.44 123.36,90.08 135.04,86.24 C140.8,84.32 146.72,82.64 152.72,81.28 C155.6,80.64 158.56,80.16 161.6,80.08 C162.88,80.08 164.96,79.84 166.08,80.64 C167.28,81.52 166.56,84.4 166.4,85.92 C162.32,86.56 158.24,85.68 154.24,85.04 C152.32,84.72 150.4,84.48 148.48,84.48 C146.24,84.48 144.08,84.8 141.92,85.28 C133.6,87.12 125.68,90.64 118.64,95.36 C116.72,96.64 114.88,98 113.12,99.52 C111.76,100.64 110.48,101.76 109.2,103.04 C108.72,103.36 108.16,103.6 107.68,103.92 C107.52,104 107.52,104.16 107.6,104.32 Z M168.48,104.72 C190.56,106.96 212.64,109.6 234.88,111.04 C238.32,111.28 241.76,111.52 245.28,111.6 C243.12,111.92 240.96,112.24 238.72,112.4 C233.12,112.88 227.52,112.88 221.92,112.64 C216.16,112.32 210.4,111.84 204.56,111.44 C198.88,111.04 193.28,110.8 187.6,110.16 C181.12,109.44 174.72,108.64 168.16,108.4 C168,108.4 168,108.56 168.16,108.64 C173.92,109.04 179.68,110.08 185.44,110.88 C188.08,111.28 190.8,111.6 193.44,111.84 C195.12,112.32 196.8,112.56 198.56,112.72 C201.04,112.96 203.52,113.28 206,113.68 C211.2,114.56 216.4,115.36 221.68,115.92 C226.96,116.48 232.24,116.88 237.52,116.72 C242,116.56 246.32,115.84 250.72,115.04 C254.88,114.24 259.44,113.36 262.88,110.88 C264.24,110.64 265.52,110.24 266.72,109.6 C266.88,110.08 266.72,110.64 266.08,111.28 C265.2,112.16 263.92,112.72 262.8,113.2 C254.4,117.2 244.8,117.68 235.68,117.84 C227.12,117.92 218.56,117.52 210,116.64 C192.88,115.04 176,112 158.96,109.36 C142.16,106.72 125.2,104.4 108.24,104.4 C108.4,104.24 108.56,104.08 108.72,104 C112.4,102.24 116.24,100.96 120.32,100.48 C125.28,99.92 130.32,100.4 135.28,100.88 C146.48,101.84 157.44,103.6 168.48,104.72 Z M167.12,84.56 C167.28,83.76 167.44,83.04 167.52,82.24 C167.6,81.6 167.6,81.04 167.2,80.48 C166.32,79.12 164.08,79.2 162.72,79.2 C157.6,79.04 152.56,80.24 147.68,81.6 C138.08,84.24 128.48,87.04 119.68,91.76 C119.68,90.64 119.6,89.52 119.6,88.4 C121.36,87.44 123.12,86.48 124.88,85.6 C136.16,80.08 148.88,76.16 161.52,75.76 C163.76,75.68 167.68,75.2 169.12,77.44 C170.48,79.68 168.4,82.32 167.12,84.56 Z M193.6,71.52 C188.48,73.92 183.28,76.24 178.16,78.64 C175.6,79.84 172.32,80.96 169.76,82.72 C169.76,82.64 169.84,82.56 169.84,82.48 C174.72,77.28 180.48,73.2 186.8,69.84 C193.52,66.16 200.64,63.2 207.52,59.84 C209.2,59.04 210.88,58.4 212.64,57.68 C214,57.12 215.44,56.56 216.48,55.52 C217.2,56.24 218.24,56.32 219.28,56.24 C220.24,56.24 221.2,56.24 222.16,56.24 C212.88,61.92 203.44,66.88 193.6,71.52 Z M252.88,56.16 C246.72,56.08 240.64,55.92 234.56,55.68 C232.16,55.6 229.84,55.44 227.44,55.28 C226.4,55.2 225.28,55.2 224.24,55.2 C224.16,55.2 224.08,55.2 224,55.2 C223.28,55.2 222.56,55.2 221.84,55.2 C220.72,55.2 218.24,55.68 217.2,54.72 C217.28,54.56 217.28,54.4 217.2,54.24 C217.36,53.76 217.52,53.36 217.6,53.2 C217.84,52.88 218.24,52.64 218.56,52.4 C218.72,52.32 218.8,52.24 218.96,52.16 C221.76,52.72 224.64,52.64 227.44,53.04 C230.88,53.52 234.4,53.92 237.84,54.24 C243.2,54.8 248.48,55.6 253.84,56 C253.52,56.16 253.2,56.16 252.88,56.16 Z M276.32,51.04 C276.56,51.12 276.88,51.2 277.04,51.36 C277.12,51.44 277.36,51.68 277.52,51.92 C277.12,51.6 276.72,51.28 276.32,51.04 Z" id="XMLID_901_" fill="#3E383C"></path>
            </g>
            <path d="M70.24,95.04 C70.24,95.04 70.32,95.76 70.48,97.12 C70.64,98.48 70.8,100.48 70.88,103.12 C70.88,104.4 70.96,105.84 70.96,107.36 C70.96,107.76 70.96,108.16 70.96,108.56 C70.96,108.96 70.96,109.36 70.88,109.76 C70.88,110 70.88,110.16 70.88,110.4 C70.88,110.64 70.88,110.8 70.8,111.04 C70.8,111.44 70.72,111.92 70.72,112.4 C70.4,116 69.84,120.08 68.4,124.32 C68,125.36 67.6,126.48 67.12,127.52 C66.96,127.76 66.88,128.08 66.72,128.32 L66.48,128.72 L66.24,129.12 C66.08,129.36 65.92,129.68 65.76,129.92 C65.6,130.16 65.44,130.4 65.28,130.72 C64.56,131.76 63.84,132.72 62.88,133.68 C61.92,134.56 60.88,135.44 59.68,136 C58.48,136.64 57.12,136.96 55.68,137.12 L55.2,137.12 C55.04,137.12 54.8,137.12 54.64,137.12 L54.08,137.12 C53.92,137.12 53.76,137.04 53.52,137.04 L52.96,136.96 C52.8,136.96 52.64,136.88 52.48,136.8 L52,136.64 C51.84,136.56 51.68,136.56 51.52,136.48 C50.16,136 48.96,135.28 47.84,134.48 C47.6,134.24 47.28,134.08 47.04,133.84 C46.8,133.6 46.48,133.36 46.24,133.12 C46,132.88 45.76,132.64 45.52,132.4 C45.36,132.24 45.28,132.16 45.12,132 L44.8,131.6 C43.84,130.56 42.96,129.44 42.24,128.24 C41.44,127.04 40.72,125.84 40,124.56 C38.64,122.08 37.52,119.36 36.48,116.64 C36.24,116 36,115.28 35.76,114.56 C35.52,113.84 35.28,113.2 35.12,112.48 C34.88,111.76 34.72,111.04 34.48,110.4 L34.16,109.36 L33.92,108.32 C33.84,108 33.76,107.6 33.68,107.28 L33.44,106.24 C33.28,105.52 33.12,104.8 32.96,104.08 C32.8,103.36 32.72,102.64 32.56,101.92 C32.4,101.2 32.32,100.48 32.24,99.76 C31.44,93.92 31.2,87.92 31.76,82.08 C32.08,79.2 32.56,76.32 33.36,73.52 C33.76,72.16 34.16,70.72 34.72,69.44 C35.2,68.08 35.84,66.8 36.56,65.52 C37.28,64.24 38.08,63.04 39.04,62 C40,60.88 41.04,59.92 42.32,59.2 C43.52,58.4 44.96,57.84 46.32,57.6 L46.56,57.52 L46.72,57.52 L46.8,57.52 C46.8,57.52 46.96,57.52 46.88,57.52 L47.36,57.52 C47.52,57.52 47.68,57.52 47.84,57.52 L48.4,57.52 C48.56,57.52 48.8,57.52 48.96,57.52 L49.52,57.6 L50.08,57.68 L50.56,57.84 C51.92,58.16 53.12,58.72 54.24,59.44 C55.36,60.08 56.32,60.96 57.28,61.76 C57.52,62 57.76,62.16 57.92,62.4 C58.16,62.64 58.32,62.88 58.56,63.04 L58.88,63.36 L59.2,63.68 C59.36,63.92 59.6,64.16 59.76,64.4 C60.48,65.36 61.12,66.24 61.76,67.2 C64.16,71.04 65.68,74.88 66.8,78.24 C66.96,78.64 67.04,79.12 67.2,79.52 C67.28,79.76 67.36,79.92 67.36,80.16 C67.44,80.4 67.44,80.56 67.52,80.8 C67.6,81.2 67.76,81.6 67.84,82 C67.92,82.4 68,82.8 68.16,83.12 C68.56,84.64 68.88,86 69.12,87.28 C69.6,89.84 69.92,91.84 70.08,93.2 C70.16,94.32 70.24,95.04 70.24,95.04 L70.24,95.04 Z M70,95.04 C70,95.04 69.92,94.32 69.68,92.96 C69.44,91.6 69.12,89.6 68.56,87.12 C68.4,86.48 68.24,85.84 68.08,85.12 C67.84,84.48 67.68,83.76 67.44,82.96 C66.96,81.52 66.4,79.92 65.76,78.24 C65.12,76.56 64.32,74.88 63.36,73.12 C62.48,71.36 61.36,69.6 60.16,67.84 C58.88,66.08 57.52,64.32 55.76,62.88 C54.88,62.16 54,61.44 53.04,60.88 C52.08,60.32 50.96,59.84 49.92,59.6 L49.52,59.52 L49.12,59.44 L48.72,59.36 C48.56,59.36 48.48,59.36 48.32,59.36 L47.92,59.36 C47.76,59.36 47.6,59.36 47.44,59.36 L46.96,59.36 L46.56,59.44 C45.44,59.6 44.32,60.08 43.28,60.72 C42.24,61.36 41.36,62.16 40.48,63.12 C40.24,63.36 40.08,63.6 39.84,63.84 C39.68,64.08 39.44,64.32 39.28,64.64 C39.12,64.88 38.88,65.2 38.72,65.44 C38.64,65.6 38.56,65.68 38.48,65.84 L38.24,66.24 C37.6,67.36 36.96,68.56 36.48,69.84 C36,71.12 35.52,72.4 35.12,73.76 C34.32,76.4 33.84,79.2 33.44,82 C33.36,82.72 33.28,83.44 33.2,84.16 C33.12,84.88 33.04,85.6 33.04,86.32 C32.96,87.04 32.96,87.76 32.96,88.48 L32.96,89.6 L32.96,90.72 C32.96,91.12 32.96,91.44 32.96,91.84 L32.96,92.96 C32.96,93.68 32.96,94.4 33.04,95.12 C33.04,95.84 33.12,96.56 33.12,97.28 C33.2,98 33.2,98.72 33.28,99.44 C33.84,105.2 35.04,111.04 37.04,116.4 C38,119.12 39.2,121.76 40.64,124.16 C41.36,125.36 42.08,126.56 42.96,127.68 C43.76,128.8 44.64,129.84 45.6,130.8 L45.92,131.12 C46,131.28 46.16,131.36 46.32,131.44 C46.56,131.68 46.8,131.92 47.04,132.08 C47.28,132.32 47.52,132.48 47.84,132.72 C48.08,132.96 48.4,133.12 48.64,133.28 C49.76,134 50.88,134.56 52.08,134.96 C52.24,135.04 52.4,135.04 52.56,135.12 L53.04,135.2 C53.2,135.2 53.36,135.28 53.52,135.28 L54,135.36 C54.16,135.36 54.32,135.36 54.48,135.44 L54.88,135.44 C55.04,135.44 55.12,135.44 55.28,135.44 L55.76,135.36 C56.96,135.28 58.08,134.88 59.12,134.4 C60.16,133.84 61.04,133.12 61.92,132.32 C62.72,131.52 63.44,130.56 64.08,129.68 C64.24,129.44 64.4,129.2 64.56,128.96 C64.72,128.72 64.88,128.48 64.96,128.24 L65.2,127.84 L65.36,127.44 C65.52,127.2 65.6,126.96 65.76,126.72 C66,126.24 66.24,125.76 66.48,125.2 C66.72,124.72 66.96,124.24 67.12,123.68 C67.92,121.68 68.48,119.68 68.96,117.76 C69.44,115.84 69.84,114 70.08,112.24 C70.32,110.48 70.56,108.8 70.64,107.28 C70.72,106.48 70.72,105.76 70.72,105.04 C70.72,104.32 70.72,103.68 70.72,103.04 C70.72,100.48 70.56,98.48 70.48,97.12 C70.08,95.84 70,95.04 70,95.04 L70,95.04 Z" id="XMLID_4_" fill="#E7EAF3"></path>
            <path d="M57.6,95.68 C57.6,95.68 57.68,96.08 57.76,96.88 C57.84,97.68 57.92,98.88 58,100.4 C58,101.12 58.08,102 58,102.88 C58,103.12 58,103.36 58,103.6 C58,103.84 58,104.08 58,104.32 C58,104.56 58,104.8 58,105.04 C58,105.28 58,105.52 57.92,105.84 C57.84,106.88 57.68,108 57.52,109.2 C57.28,110.4 57.04,111.6 56.56,112.88 C56.32,113.52 56.08,114.16 55.84,114.8 C55.52,115.44 55.2,116.08 54.8,116.64 C54.4,117.28 53.92,117.84 53.36,118.4 C52.8,118.96 52.16,119.44 51.44,119.76 C50.72,120.08 49.92,120.32 49.12,120.4 L48.8,120.4 C48.72,120.4 48.56,120.4 48.48,120.4 L48.16,120.4 C48.08,120.4 47.92,120.4 47.84,120.32 L47.52,120.24 C47.44,120.24 47.28,120.16 47.2,120.16 L46.88,120.08 C46.8,120.08 46.72,120 46.56,120 C45.76,119.68 45.04,119.28 44.4,118.8 C43.76,118.32 43.12,117.76 42.56,117.12 C41.44,115.92 40.56,114.48 39.76,113.04 C39.36,112.32 38.96,111.52 38.64,110.8 C38.32,110 38,109.2 37.68,108.4 C37.52,108 37.36,107.6 37.28,107.2 C37.12,106.8 37.04,106.4 36.88,106 C36.72,105.6 36.64,105.2 36.56,104.8 L36.4,104.16 L36.24,103.52 C35.84,101.84 35.52,100.16 35.28,98.4 C34.8,94.96 34.64,91.44 35.04,88 C35.2,86.32 35.52,84.56 36,82.96 C36.24,82.16 36.48,81.36 36.8,80.56 C37.12,79.76 37.44,79.04 37.84,78.24 C38.64,76.8 39.76,75.44 41.2,74.48 C41.92,74 42.72,73.68 43.6,73.6 L43.76,73.6 L43.84,73.6 L43.84,73.6 C43.84,73.6 43.92,73.6 43.92,73.6 L44.24,73.6 C44.32,73.6 44.4,73.6 44.56,73.6 L44.88,73.6 C44.96,73.6 45.12,73.6 45.2,73.6 L45.52,73.68 L45.84,73.76 L46.16,73.84 C46.96,74 47.68,74.4 48.32,74.8 C48.96,75.2 49.6,75.68 50.08,76.16 C50.64,76.64 51.04,77.2 51.52,77.76 C51.92,78.32 52.32,78.88 52.72,79.44 C53.44,80.56 54,81.68 54.48,82.8 C54.96,83.92 55.36,84.96 55.68,85.92 C55.76,86.16 55.84,86.4 55.92,86.64 C56,86.88 56.08,87.12 56.16,87.36 C56.24,87.6 56.32,87.84 56.32,88.08 C56.4,88.32 56.4,88.56 56.48,88.72 C56.72,89.6 56.88,90.4 57.04,91.2 C57.36,92.72 57.52,93.84 57.6,94.64 C57.52,95.28 57.6,95.68 57.6,95.68 Z M57.44,95.68 C57.44,95.68 57.36,95.28 57.28,94.48 C57.12,93.68 56.96,92.48 56.64,91.04 C56.56,90.64 56.48,90.32 56.32,89.92 C56.24,89.52 56.08,89.12 55.92,88.64 C55.68,87.76 55.36,86.88 54.96,85.92 C54.16,84 53.12,81.84 51.68,79.76 C50.96,78.72 50.08,77.68 49.12,76.8 C48.64,76.4 48.08,75.92 47.52,75.6 C46.96,75.28 46.32,74.96 45.68,74.88 L45.44,74.8 L45.2,74.8 L44.96,74.8 C44.88,74.8 44.8,74.8 44.72,74.8 L44.48,74.8 C44.4,74.8 44.32,74.8 44.24,74.8 L43.92,74.8 L43.68,74.88 C43.04,74.96 42.4,75.28 41.76,75.6 C41.2,76 40.64,76.48 40.16,77.04 C40.08,77.2 39.92,77.36 39.84,77.44 C39.76,77.6 39.6,77.76 39.52,77.92 C39.28,78.24 39.12,78.56 38.88,78.88 C38.08,80.24 37.52,81.76 37.04,83.28 C36.56,84.88 36.24,86.48 36.08,88.16 C36,88.56 36,88.96 35.92,89.44 C35.92,89.84 35.84,90.24 35.84,90.72 C35.84,91.12 35.76,91.6 35.76,92 L35.76,92.64 L35.76,93.28 C35.76,94.16 35.76,94.96 35.76,95.84 C35.76,96.24 35.84,96.72 35.84,97.12 L35.92,98.4 C36.08,100.08 36.32,101.84 36.72,103.44 C37.12,105.12 37.52,106.72 38.16,108.32 C38.32,108.72 38.48,109.12 38.64,109.52 C38.8,109.92 38.96,110.32 39.12,110.64 C39.28,111.04 39.44,111.36 39.68,111.76 C39.84,112.16 40.08,112.48 40.32,112.88 C41.12,114.32 42.08,115.6 43.2,116.72 C44.32,117.84 45.6,118.8 46.96,119.2 C47.04,119.2 47.12,119.28 47.2,119.28 L47.44,119.36 C47.52,119.36 47.6,119.36 47.68,119.44 L47.92,119.44 C48,119.44 48.08,119.44 48.16,119.44 L48.4,119.44 C48.48,119.44 48.56,119.44 48.64,119.44 L48.96,119.44 C49.68,119.36 50.32,119.2 50.88,118.88 C51.44,118.56 52,118.16 52.48,117.68 C52.96,117.2 53.36,116.64 53.76,116.16 C54.48,115.04 55.12,113.84 55.52,112.72 C56.48,110.32 56.96,108.08 57.28,106 C57.44,104.96 57.52,104 57.6,103.12 C57.6,102.64 57.68,102.24 57.68,101.84 C57.68,101.44 57.68,101.04 57.68,100.64 C57.68,99.12 57.6,97.92 57.52,97.12 C57.52,96.16 57.44,95.68 57.44,95.68 Z" id="XMLID_491_" fill="#E7EAF3"></path>
            <path d="M60.16,87.92 C59.84,86.24 59.52,84.56 59.28,82.88 C58.8,79.76 58.08,76.56 56.48,73.76 C55.2,71.6 53.52,68.8 51.2,67.68 C48.56,66.4 45.6,67.2 43.04,68.08 C42.96,68.08 42.96,68.24 43.04,68.24 C45.84,67.6 49.12,66.88 51.68,68.72 C53.84,70.24 55.68,72.96 56.56,75.44 C57.04,76.8 57.2,78.24 57.44,79.76 C57.68,81.28 58,82.8 58.32,84.32 C58.64,85.84 58.88,87.36 59.2,88.88 C59.52,90.4 60,91.92 60.4,93.44 C60.48,93.6 60.72,93.6 60.72,93.36 C60.64,91.52 60.48,89.68 60.16,87.92 Z" id="XMLID_983_" fill="#E7EAF3"></path>
            <path d="M62.72,101.92 C62.72,101.76 62.48,101.76 62.48,101.92 C62.08,106.88 61.36,112 60.32,116.88 C59.84,119.12 58.72,121.12 57.36,122.96 C55.92,124.88 53.92,126.32 51.36,126 C51.2,126 51.12,126.24 51.28,126.32 C53.2,127.44 55.36,126.48 56.88,125.12 C58.64,123.52 60.32,121.36 61.04,119.12 C61.92,116.56 62.08,113.68 62.32,110.96 C62.56,107.92 62.64,104.96 62.72,101.92 Z" id="XMLID_986_" fill="#E7EAF3"></path>
            <path d="M60.96,122.4 C59.2,125.68 58.08,129.92 53.84,130.72 C49.44,131.6 45.68,128.88 43.52,125.2 C43.44,125.04 43.12,125.12 43.2,125.36 C45.2,129.28 49.2,132.64 53.84,132.08 C58.48,131.52 61.2,126.88 61.52,122.56 C61.52,122.24 61.12,122.08 60.96,122.4 Z" id="XMLID_987_" fill="#E7EAF3"></path>
            <path d="M55.44,119.2 C54.64,120.72 53.92,122.16 52.56,123.28 C52.32,123.44 52.64,123.76 52.88,123.6 C54.24,122.56 55.52,121.04 55.76,119.28 C55.68,119.12 55.44,119.04 55.44,119.2 Z" id="XMLID_988_" fill="#E7EAF3"></path>
            <path d="M50.24,99.52 C50.08,96.8 49.92,93.68 48.4,91.28 C47.2,89.36 44.96,87.84 42.56,88.48 C40.4,89.04 38.72,91.04 38.08,93.12 C37.12,96.16 38.24,99.68 39.6,102.4 C39.76,102.72 40.16,102.56 40.08,102.24 C39.44,99.28 38.16,96.16 39.44,93.12 C40.4,90.8 43.2,88.96 45.52,90.72 C47.92,92.48 48,95.92 48.32,98.56 C48.48,100.08 48.64,101.6 48.72,103.12 C48.72,104.72 48.48,106.24 48.4,107.76 C48.4,108 48.72,108.16 48.88,107.92 C50.56,105.68 50.4,102.16 50.24,99.52 Z" id="XMLID_989_" fill="#E7EAF3"></path>
            <path d="M43.44,95.52 C43.44,95.28 43.2,95.12 43.04,95.04 C42.64,94.96 42.24,95.12 42,95.36 C41.92,95.44 41.76,95.6 41.68,95.76 C41.68,95.84 41.68,95.92 41.68,96.08 C41.68,96.08 41.68,96.08 41.68,96.08 C41.68,96.16 41.68,96.24 41.68,96.32 C41.76,96.8 42.32,96.8 42.56,96.4 C42.56,96.4 42.56,96.4 42.64,96.4 C42.64,96.4 42.72,96.32 42.72,96.32 C42.72,96.32 42.72,96.32 42.72,96.32 C42.72,96.32 42.72,96.32 42.72,96.32 C42.72,96.32 42.72,96.32 42.72,96.32 C42.72,96.32 42.72,96.32 42.72,96.32 C42.72,96.32 42.72,96.32 42.72,96.32 C42.72,96.32 42.72,96.32 42.72,96.32 C42.72,96.32 42.8,96.32 42.8,96.32 C42.96,96.32 43.04,96.24 43.12,96.16 C43.36,96.08 43.44,95.84 43.44,95.52 Z" id="XMLID_1010_" fill="#E7EAF3"></path>
            <path d="M54.4,99.84 C54.48,96.48 54.24,93.2 52.4,90.32 C51.44,88.88 50.32,87.52 49.04,86.32 C47.92,85.28 46.64,84.32 45.04,84.8 C44.8,84.88 44.88,85.28 45.12,85.2 C47.04,85.04 48.48,87.2 49.52,88.48 C50.56,89.76 51.44,91.2 52,92.8 C52.48,94.4 52.56,96.16 52.48,97.84 C52.48,99.44 52.4,101.12 52.24,102.72 C52.08,104.32 51.84,105.92 51.28,107.36 C50.8,108.64 50,110.32 48.8,111.04 C47.2,112.08 45.6,110.72 44.48,109.6 C43.36,108.48 42.48,107.12 41.52,105.84 C41.44,105.68 41.12,105.84 41.2,106 C41.84,108.56 44,111.44 46.4,112.56 C49.28,113.92 51.68,111.28 52.8,108.88 C54.24,106.16 54.32,102.88 54.4,99.84 Z" id="XMLID_990_" fill="#E7EAF3"></path>
        </g>
    </g>
</svg>